# xmcd
#
# Track frame offsets:
#	150
#	21288
#	33694
#	50602
#	65794
#	83590
#	96960
#	112481
#	128253
#	140026
#	157477
#	171860
#	181680
#	195052
#	211520
#	233273
#	246351
#	255338
#	266363
#	284970
#	298607
#
# Disc length: 4149 seconds
#
# Revision: 0
# Processed by: cddbd v1.4PL0 Copyright (c) Steve Scherf et al.
# Submitted via: audiograbber 1.81.02
#
DISCID=33103315
DTITLE=Les sunlights - Tous les tubes
DYEAR=1900
DGENRE=Oldies
TTITLE0=Les roses blanches
TTITLE1=Ne joue pas au soldat
TTITLE2=Le déserteur
TTITLE3=Maman la plus belle du monde
TTITLE4=Loin des yeux loin du coeur
TTITLE5=Quand on est musicien
TTITLE6=Tzeinerlin
TTITLE7=Nous deux on s'aimera
TTITLE8=Gisèle
TTITLE9=Voulez-vous danser grand mère
TTITLE10=Plus de maman
TTITLE11=Rendez-vous a demain
TTITLE12=Maria isabel
TTITLE13=20 ans dejà
TTITLE14=Mon fils
TTITLE15=Pourquoi
TTITLE16=Les majorettes
TTITLE17=Casser la baraque
TTITLE18=Plus jamais ca
TTITLE19=Le galérien
TTITLE20=Les roses blanches (version italienne)
EXTD=
EXTT0=
EXTT1=
EXTT2=
EXTT3=
EXTT4=
EXTT5=
EXTT6=
EXTT7=
EXTT8=
EXTT9=
EXTT10=
EXTT11=
EXTT12=
EXTT13=
EXTT14=
EXTT15=
EXTT16=
EXTT17=
EXTT18=
EXTT19=
EXTT20=
PLAYORDER=
